<svg width="253" height="240" viewBox="0 0 253 240" fill="none" xmlns="http://www.w3.org/2000/svg">
<path d="M126.5 0C56.7486 0 0 53.8327 0 120C0 186.167 56.7486 240 126.5 240C196.251 240 253 186.167 253 120C253 53.8327 196.251 0 126.5 0ZM168.646 55.4827C177.364 55.4941 185.883 57.9569 193.126 62.5598C200.369 67.1628 206.011 73.6992 209.339 81.3431C212.667 88.9869 213.532 97.3951 211.823 105.505C210.115 113.615 205.911 121.062 199.742 126.906C193.573 132.75 185.717 136.728 177.165 138.337C168.614 139.946 159.751 139.115 151.698 135.947C143.645 132.78 136.762 127.419 131.92 120.541C127.077 113.664 124.493 105.58 124.493 97.3096C124.497 91.813 125.642 86.371 127.863 81.2943C130.084 76.2176 133.338 71.6056 137.438 67.7216C141.538 63.8376 146.404 60.7577 151.759 58.6577C157.114 56.5578 162.852 55.4789 168.646 55.4827ZM74.3187 70.6904C81.452 70.6995 88.4223 72.7144 94.3487 76.4804C100.275 80.2465 104.892 85.5946 107.615 91.8488C110.338 98.103 111.045 104.983 109.648 111.618C108.25 118.254 104.81 124.348 99.7631 129.129C94.7157 133.911 88.2873 137.166 81.2905 138.482C74.2936 139.799 67.0422 139.119 60.4529 136.527C53.8635 133.935 48.232 129.549 44.2699 123.922C40.3079 118.295 38.1933 111.68 38.1933 104.913C38.1957 100.416 39.1321 95.963 40.949 91.8089C42.7659 87.6548 45.4277 83.8809 48.7825 80.7028C52.1372 77.5248 56.1191 75.0048 60.5006 73.2868C64.8822 71.5689 69.5777 70.6866 74.3187 70.6904ZM28.1888 160.113C43.0891 152.446 62.1674 148.61 74.3187 148.61C83.4413 148.61 95.1912 150.34 106.753 154.494C99.0024 158.597 92.0165 163.881 86.0747 170.135C78.0529 178.788 73.4491 189.127 73.4491 199.46V208.113C53.306 197.169 37.4306 180.342 28.1888 160.142V160.113ZM126.5 221.538C114.186 221.548 101.963 219.532 90.3745 215.579V199.973C90.3745 169.633 142.525 154.344 168.646 154.344C182.634 154.344 204.152 158.746 221.077 167.504C211.969 183.807 198.354 197.45 181.692 206.969C165.03 216.489 145.95 221.525 126.5 221.538Z" fill="#FFE34F" fill-opacity="0.72"/>
</svg>
